<svg xmlns="http://www.w3.org/2000/svg" viewBox="0 0 102.2 28.8" enable-background="new 0 0 102.2 28.8"><path d="m8.5 0c2.7 0 4.8.8 6.4 2.5 1.4 1.5 2.1 3.4 2.1 5.7 0 2.6-.9 4.6-2.8 6.1-1.6 1.3-3.5 1.9-5.7 1.9-2.7 0-4.8-.8-6.4-2.5-1.4-1.5-2.1-3.4-2.1-5.7 0-2.6.9-4.6 2.8-6.1 1.5-1.3 3.4-1.9 5.7-1.9m-3.6 28.7c-.9 0-1.6-.2-2-.6-.3-.3-.5-.7-.6-1.4 0-.2-.1-.5-.1-1 0-.4-.1-.6-.1-.8-.1-.9-.3-1.5-.5-1.8-.1-.1-.4-.2-.9-.3v-.2c1.1 0 1.8 0 2.3 0 .1 1.8.2 3.2.3 4.2.1.9.7 1.3 1.7 1.3.6 0 1-.2 1.3-.5.3-.3.5-.9.6-1.9.1-.4.1-.9.1-1.3 0-.9-.4-1.5-1.1-1.5v-.2h3v.2c-.5 0-.9.2-1.1.6-.2.3-.3 1-.4 2.2-.1 1.1-.3 1.8-.6 2.2-.3.5-1 .8-1.9.8m3.8-13.2c1.9 0 3.3-.8 4.2-2.3.7-1.2 1.1-2.9 1.1-4.9 0-2.6-.7-4.6-2.1-6-1.1-1-2.3-1.5-3.6-1.5-1.9-.1-3.3.7-4.2 2.2-.8 1.3-1.1 2.9-1.1 5 0 2.6.7 4.6 2.1 6 1 1 2.2 1.5 3.6 1.5m.9 7.2h1.9c.3.4.9 1.2 2.1 2.3.1.1.4.4 1.1 1.1.3.4.6.6.7.8v-1.6c0-1-.1-1.7-.3-2-.2-.2-.6-.4-1.3-.4v-.2h3.1v.2c-.4 0-.6.2-.8.3-.2.2-.3 1.3-.3 3.2v2.1h-.3c-.7-.7-1.5-1.6-2.4-2.6-.6-.6-1.1-1.2-1.7-1.8v1.2c0 1.5.1 2.3.3 2.6.2.3.6.4 1.2.4v.2h-3.1v-.2c.4 0 .8-.2.9-.4.2-.3.3-1.2.3-2.7 0-.9 0-1.4-.1-1.5-.4-.4-.8-.7-1.3-.8 0 0 0-.2 0-.2m39.1-18.9h-.5c-.1-1-.6-1.7-1.4-2.1-.6-.3-1.6-.4-2.8-.4h-2.1v6.1h1.7c1.2 0 2.1 0 2.7-.1v3.6h-.5c0-1-.2-1.6-.5-1.9s-.9-.5-1.7-.5c-.8 0-1.3 0-1.7 0v4.1c0 1.2.2 2 .7 2.3.3.2 1.1.4 2.2.4v.5h-15l-4.1-6.5c-.5.6-1 1.4-1.8 2.4-.8 1.1-1.1 1.9-1.1 2.4 0 .7.6 1 1.7 1.2v.5h-6.5v-.5c1.3-.1 2.4-.4 3.1-1.1.4-.3 1-1.1 1.9-2.3l2.3-3.3-2.5-4.1c-1.3-2.2-2.9-3.3-4.7-3.4v-.6h5l3.8 5.9c.1-.1.3-.4.7-1 1.1-1.6 1.7-2.8 1.7-3.4 0-.6-.5-.9-1.6-1v-.5h6.3v.5c-1.3.1-2.3.5-3.1 1.1-.5.4-1.2 1.2-1.8 2.3l-1.7 2.6 3.2 5c1.3 2 2.7 3.1 4.2 3.1 1.6 0 2.8-.2 3.4-.5.9-.5 1.4-1.3 1.4-2.5v-8.3c0-1.1-.2-1.9-.6-2.2-.4-.3-1-.5-2.1-.5v-.6h11.7l.1 3.3m-27.3 24.5v.2h-3.4v-.2c.5-.1.8-.2.9-.4.2-.2.3-.7.3-1.4v-1.8c0-.8-.1-1.4-.3-1.5-.2-.1-.5-.3-.9-.3v-.2h3.4v.2c-.4.1-.8.2-.9.3-.2.2-.3.7-.3 1.4v1.7c0 .8.1 1.3.3 1.5.1.3.4.4.9.5m6.7-5.1c-.2.2-.6.9-1.2 2.2-.9 1.9-1.4 3.1-1.5 3.4 0-.1-.3-.6-.7-1.7-.3-.6-.5-1.1-.7-1.5-.1-.2-.2-.5-.4-.9-.2-.4-.3-.6-.4-.8-.2-.6-.6-.9-1.2-1v-.2h3.2v.2c-.6.1-.9.3-.9.5 0 .1.2.7.6 1.8.3.7.6 1.4.9 2 .3-.6.5-1.2.8-1.8.4-1 .6-1.7.6-1.9 0-.3-.3-.5-1-.6v-.2h2.7v.2c-.4 0-.6.2-.8.3m5.7 1.2v2.3h-.2c0-.4-.1-.7-.3-.8s-.4-.2-.7-.2h-.9v.8c0 .7.1 1.2.2 1.4.1.2.5.3.9.3.9 0 1.6-.6 1.9-1.8h.2c-.2.8-.3 1.5-.5 2.1h-4.9v-.2c.5-.1.9-.2 1-.4.1-.2.2-.7.2-1.4v-2.2c0-.6-.1-1-.3-1.2-.2-.2-.5-.3-.9-.3v-.2h4.9v1.6h-.2c-.1-.9-.8-1.3-1.9-1.3h-.7v2.3c.1 0 .2 0 .5 0 .6 0 1-.1 1.1-.1.1-.1.2-.3.3-.7h.3m8.2 4c-.4 0-.7-.1-1-.2-.3-.2-.7-.5-1.2-1.1-.1-.2-.5-.7-1-1.7.8-.2 1.2-.6 1.2-1.3 0-.8-.6-1.2-1.8-1.3v3.7c0 .7.1 1.1.3 1.3.2.2.5.3 1.1.3v.2h-3.5v-.2c.5-.1.8-.2 1-.4.1-.2.2-.5.2-.9v-2.6c0-.6-.1-1-.3-1.2-.1-.1-.5-.2-.9-.3v-.2c.6 0 1.4 0 2.4 0 1.8 0 2.6.5 2.6 1.5 0 .6-.4 1.1-1.2 1.4.2.4.5.8.8 1.3.7.8 1.4 1.3 2 1.4v.2l-.7.1m3.5.2c-.5 0-1.1-.2-1.7-.5v-1.8h.2c.2 1.3.8 2 1.6 2 .7 0 1.1-.4 1.1-1.1 0-.5-.4-.9-1.3-1.3-1-.5-1.5-1-1.5-1.7 0-.6.3-1 .8-1.3.4-.2.8-.4 1.3-.4.5 0 .9.1 1.4.4v1.5h-.2c-.3-1.1-.7-1.6-1.3-1.6-.3 0-.5.1-.7.3-.2.2-.2.4-.2.6 0 .5.5 1 1.4 1.4 1 .5 1.4 1.1 1.4 1.7 0 .6-.3 1-.8 1.3-.5.4-1 .5-1.5.5m6.8-.3v.2h-3.4v-.2c.5-.1.8-.2.9-.4.2-.2.3-.7.3-1.4v-1.8c0-.8-.1-1.4-.3-1.5-.2-.1-.5-.3-.9-.3v-.2h3.4v.2c-.5.1-.8.2-.9.3-.2.2-.3.7-.3 1.4v1.7c0 .8.1 1.3.3 1.5.1.3.4.4.9.5m6.4-28.3c2.7 0 4.8.8 6.4 2.5 1.4 1.5 2.1 3.4 2.1 5.7 0 2.6-.9 4.6-2.8 6.1-1.6 1.3-3.5 1.9-5.7 1.9-2.7 0-4.8-.8-6.4-2.5-1.4-1.5-2.1-3.4-2.1-5.7 0-2.6.9-4.6 2.8-6.1 1.6-1.3 3.5-1.9 5.7-1.9m.2 15.5c1.9 0 3.3-.8 4.3-2.3.7-1.2 1.1-2.9 1.1-4.9 0-2.6-.7-4.6-2.1-6-1-1-2.2-1.5-3.6-1.5-1.9 0-3.3.8-4.2 2.3-.7 1.2-1.1 2.9-1.1 4.9 0 2.6.7 4.6 2.1 6 .9 1 2.1 1.5 3.5 1.5m-2.2 7.6v3.3c0 .8.1 1.4.3 1.5.2.2.5.3 1 .4v.2h-3.5v-.2c.4-.1.8-.2.9-.4.2-.2.3-.8.3-1.8v-3.1c-.9 0-1.4.1-1.6.2-.2.2-.4.6-.5 1.3h-.2c.1-.8.2-1.4.2-1.8.8 0 1.4.1 1.9.1h1.5c.9 0 1.5 0 1.9-.1v.2c0 .2 0 .5.1.8 0 .4 0 .6.1.7h-.2c-.1-.7-.4-1.1-.6-1.2-.2-.1-.6-.2-1.3-.2l-.3.1m8 .9c0 .1-.1.2-.2.4-.1.2-.2.4-.2.5-.4.8-.6 1.2-.6 1.3v.8c0 .4.1.8.2.9.2.2.5.3 1 .4v.2h-3.5v-.2c.6-.1.9-.2 1.1-.5.1-.1.2-.4.2-.8v-.8c-.3-.6-.6-1.1-.9-1.6-.6-.9-.9-1.4-1.2-1.6-.2-.1-.4-.1-.7-.2v-.2h3v.2c-.7.2-.9.3-.9.5 0 .2.2.6.6 1.1.1.2.2.4.5.7.2.2.3.4.3.5.2-.3.4-.7.6-1.2.3-.5.4-.9.4-1.1 0-.2-.2-.4-.6-.5v-.2h2.4v.2c-.7.2-1.2.6-1.5 1.2m6.2-8.3v-12.2c0-1.1-.2-1.8-.5-2.1-.2-.2-.7-.4-1.4-.4v-.4c1.6 0 3.5-.1 5.8-.1 4.2 0 6.3 1.2 6.3 3.6 0 1.1-.4 2-1.3 2.8-.7.6-1.5 1-2.5 1.3l.4.5c.9 1.1 1.8 2.1 2.6 2.9 2.4 2.4 4.1 3.6 5.2 3.6 1.1 0 1.8-.2 2.2-.7.4-.4.6-1.1.6-2v-8.2c0-1.3-.2-2.1-.6-2.5-.4-.4-1.1-.6-2.2-.8v-.4l5-.1h1.3c7 0 10.5 2.5 10.5 7.6 0 1.7-.6 3.2-1.8 4.6-1 1.1-2.3 2-3.8 2.4-1 .4-2.5.5-4.4.5h-7.1c-1.3 0-2.2-.1-2.7-.2-.6-.2-1.2-.5-2.1-1-1.1-.7-2.2-1.6-3.1-2.5-.6-.7-1.6-1.9-3-3.8 1.2-.2 2.2-.7 2.9-1.4.7-.7 1-1.4 1-2.2 0-.8-.3-1.5-.9-2.1-.9-.9-2.1-1.3-3.7-1.3h-.3v11.3c0 1.1.3 1.9.8 2.2.3.2 1.1.3 2.2.5v.5l-5.4.1m1.1 10.5v-1.2c0-1.2-.1-1.8-.4-2-.2-.1-.5-.2-.9-.3v-.2h2.4c.8 0 1.4.1 2 .4.6.3 1 .7 1 1.2 0 1.1-.8 1.7-2.5 1.8v-.2c.5-.1.9-.2 1.1-.4.2-.2.3-.5.3-1 0-1-.7-1.5-2.1-1.6v3.7c0 .7.1 1.1.3 1.3.2.1.5.2 1.1.3v.2h-3.5v-.2c.6-.1.9-.2 1-.5s.2-.5.2-1.3m11.1 2.2c-.4 0-.7-.1-1-.2-.3-.2-.7-.5-1.2-1.1-.1-.2-.5-.7-1-1.7.8-.2 1.2-.6 1.2-1.3 0-.8-.6-1.2-1.8-1.3v3.7c0 .7.1 1.1.3 1.3.2.2.5.3 1.1.3v.2h-3.5v-.2c.5-.1.8-.2 1-.4.1-.2.2-.5.2-.9v-2.6c0-.6-.1-1-.3-1.2-.1-.1-.5-.2-.9-.3v-.2c.6 0 1.4 0 2.4 0 1.8 0 2.6.5 2.6 1.5 0 .6-.4 1.1-1.2 1.4.2.4.5.8.8 1.3.7.8 1.4 1.3 2 1.4v.2l-.7.1m5.7-4v2.3h-.2c0-.4-.1-.7-.2-.8-.1-.1-.3-.2-.7-.2h-.9v.8c0 .7.1 1.2.2 1.4.1.2.4.3.9.3.9 0 1.6-.6 2-1.8h.2c-.2.9-.4 1.6-.5 2.1h-4.8v-.2c.5-.1.9-.2 1-.4.1-.2.2-.7.2-1.4v-2.2c0-.6-.1-1-.2-1.2-.2-.2-.5-.3-.9-.3v-.2h4.9v1.6h-.2c-.1-.6-.3-.9-.7-1.1-.6-.1-1-.1-1.5-.1h-.7v2.3c.1 0 .2 0 .5 0 .6 0 1-.1 1.1-.1.1-.1.2-.3.2-.7h.3zm2.9-23.1c-.2 0-.6 0-1 .1v11.3c0 1 .2 1.7.7 2 .4.3 1 .4 1.9.4 2 0 3.6-.7 4.7-2.2.9-1.2 1.4-2.7 1.4-4.5 0-2.4-.8-4.2-2.4-5.5-1.5-1.1-3.2-1.6-5.3-1.6m1.4 27.3c-.5 0-1.1-.2-1.7-.5v-1.8h.2c.2 1.3.8 2 1.6 2 .7 0 1.1-.4 1.1-1.1 0-.5-.4-.9-1.3-1.3-1-.5-1.5-1-1.5-1.7 0-.6.2-1 .7-1.3.4-.2.8-.4 1.4-.4.5 0 .9.1 1.4.4v1.5h-.2c-.3-1.1-.7-1.6-1.3-1.6-.3 0-.5.1-.7.3-.2.2-.2.4-.2.6 0 .5.5 1 1.4 1.4 1 .5 1.4 1 1.4 1.7 0 .6-.3 1-.8 1.3-.5.4-.9.5-1.5.5m5.4 0c-.5 0-1.1-.2-1.7-.5v-1.8h.2c.2 1.3.8 2 1.6 2 .7 0 1-.4 1-1.1 0-.5-.4-.9-1.3-1.3-1-.5-1.5-1-1.5-1.7 0-.6.2-1 .7-1.3.4-.2.8-.4 1.4-.4.5 0 .9.1 1.4.4l-.1 1.5h-.2c-.3-1.1-.7-1.6-1.3-1.6-.3 0-.5.1-.7.3-.2.2-.2.4-.2.6 0 .5.5 1 1.4 1.4 1 .5 1.4 1 1.4 1.7 0 .6-.3 1-.8 1.3-.3.4-.8.5-1.3.5" fill="#747679"/></svg>
